<?xml version="1.0" standalone="no"?>
<!DOCTYPE svg PUBLIC "-//W3C//DTD SVG 20010904//EN"
 "http://www.w3.org/TR/2001/REC-SVG-20010904/DTD/svg10.dtd">
<svg version="1.0" xmlns="http://www.w3.org/2000/svg"
 width="150.000000pt" height="150.000000pt" viewBox="0 0 150.000000 150.000000"
 preserveAspectRatio="xMidYMid meet">

<g transform="translate(0.000000,150.000000) scale(0.100000,-0.100000)"
fill="#000000" stroke="none">
<path d="M640 1351 c-66 -12 -134 -39 -189 -76 -36 -25 -129 -124 -145 -155
-58 -113 -74 -254 -39 -355 53 -155 188 -274 358 -317 87 -22 141 -22 224 -2
120 30 246 116 306 209 114 176 91 400 -56 554 -27 28 -53 51 -59 51 -5 0 -10
3 -10 8 0 7 -49 33 -121 65 -43 18 -204 29 -269 18z m245 -52 c33 -11 71 -27
86 -35 39 -20 149 -123 149 -140 0 -8 4 -14 8 -14 5 0 19 -26 32 -57 20 -48
25 -75 25 -158 0 -93 -2 -105 -33 -165 -27 -56 -120 -170 -137 -170 -3 0 -24
-12 -46 -26 -48 -30 -174 -64 -237 -64 -55 0 -140 23 -212 58 -124 59 -220
197 -236 338 -16 135 76 314 196 380 19 10 37 22 40 25 3 3 32 15 65 27 84 29
219 29 300 1z"/>
<path d="M630 1241 c-112 -36 -197 -100 -236 -175 -19 -38 -44 -128 -44 -161
0 -57 50 -195 71 -195 5 0 9 -4 9 -10 0 -13 37 -50 50 -50 6 0 10 -4 10 -9 0
-13 59 -46 119 -66 82 -27 218 -18 296 19 59 29 155 112 155 134 0 7 4 12 9
12 12 0 51 125 51 165 0 44 -27 131 -55 174 -29 46 -71 91 -85 91 -5 0 -10 3
-10 8 0 11 -77 47 -141 66 -71 20 -129 20 -199 -3z m184 -32 c98 -27 184 -88
224 -158 20 -34 42 -111 42 -146 0 -84 -55 -185 -130 -240 -54 -39 -155 -75
-216 -75 -46 0 -134 24 -179 49 -43 23 -117 101 -140 146 -30 58 -27 195 5
250 83 140 250 213 394 174z"/>
<path d="M767 1122 c-22 -39 -15 -132 9 -132 10 0 14 14 14 49 0 27 3 56 6 64
5 14 -22 32 -29 19z"/>
<path d="M523 1098 c-46 -22 -48 -99 -2 -140 40 -38 78 -37 118 4 38 39 40 76
5 117 -20 25 -33 31 -62 30 -21 0 -47 -5 -59 -11z"/>
<path d="M879 1021 c-37 -38 -37 -63 2 -95 34 -29 53 -32 92 -13 48 22 46 97
-4 122 -40 21 -57 19 -90 -14z"/>
<path d="M611 874 c-12 -20 -30 -38 -41 -41 -25 -7 -26 -20 -1 -28 28 -8 60
14 77 54 25 59 -2 71 -35 15z"/>
<path d="M810 847 c0 -7 14 -18 31 -24 17 -7 33 -21 36 -32 3 -13 14 -21 25
-21 17 0 19 4 14 26 -4 15 -17 35 -29 45 -25 21 -77 25 -77 6z"/>
<path d="M687 752 c-27 -30 -22 -87 9 -111 34 -27 56 -27 80 0 22 24 25 89 5
113 -18 22 -74 21 -94 -2z"/>
<path d="M107 305 c-4 -9 -7 -29 -7 -45 0 -16 -4 -39 -9 -52 -22 -60 -22 -78
-1 -78 13 0 22 9 27 31 7 24 17 34 47 44 50 17 57 26 58 64 1 40 -2 43 -60 49
-40 3 -50 1 -55 -13z m79 -30 c8 -20 -13 -45 -37 -45 -21 0 -22 4 -13 38 7 25
41 30 50 7z"/>
<path d="M266 304 c-3 -8 -10 -44 -16 -79 -6 -35 -13 -71 -16 -79 -4 -11 0
-16 15 -16 13 0 22 8 25 23 15 79 29 144 33 155 3 7 -3 12 -15 12 -11 0 -23
-7 -26 -16z"/>
<path d="M340 305 c0 -11 11 -15 36 -15 l35 0 -38 -47 c-21 -27 -44 -52 -50
-56 -7 -4 -13 -19 -13 -32 0 -24 3 -25 60 -25 47 0 60 3 60 15 0 11 -11 15
-41 15 l-40 0 47 58 c25 31 50 59 55 60 5 2 9 12 9 23 0 17 -8 19 -60 19 -47
0 -60 -3 -60 -15z"/>
<path d="M487 313 c-15 -15 -5 -23 29 -23 l36 0 -33 -42 c-18 -24 -38 -48 -45
-54 -7 -5 -16 -22 -19 -37 l-7 -27 85 1 c79 1 86 3 98 25 18 35 76 34 85 -1 4
-16 13 -25 26 -25 16 0 19 5 14 23 -3 12 -11 55 -18 95 -11 65 -14 72 -35 72
-15 0 -27 -8 -33 -22 -6 -13 -26 -50 -44 -83 l-34 -59 -49 3 c-26 1 -49 4 -50
4 -1 1 13 18 30 38 99 112 100 119 24 119 -30 0 -57 -3 -60 -7z m211 -101 c-4
-2 -14 -2 -22 0 -13 3 -13 8 2 38 l17 35 5 -35 c3 -19 2 -36 -2 -38z"/>
<path d="M871 258 c-24 -115 -25 -128 -7 -128 9 0 19 15 26 39 9 35 15 40 42
43 42 4 50 28 9 28 -26 0 -31 4 -31 24 0 21 5 25 37 28 61 5 54 28 -9 28 l-53
0 -14 -62z"/>
<path d="M1016 304 c-3 -8 -10 -44 -16 -79 -6 -35 -13 -71 -16 -79 -5 -13 3
-16 50 -16 43 0 56 3 56 15 0 10 -10 15 -30 15 -27 0 -30 3 -30 30 0 28 3 30
35 30 24 0 35 5 35 15 0 10 -10 15 -31 15 -24 0 -30 3 -25 16 3 9 6 18 6 20 0
2 15 4 34 4 21 0 36 6 40 15 4 12 -5 15 -48 15 -40 0 -55 -4 -60 -16z"/>
<path d="M1180 307 c-16 -8 -26 -23 -28 -40 -3 -22 3 -31 28 -45 20 -11 30
-23 28 -37 -3 -23 -42 -33 -63 -15 -10 8 -15 8 -21 -1 -9 -15 22 -39 52 -39
32 0 74 37 74 66 0 17 -9 30 -30 42 -38 22 -35 47 5 46 35 -1 52 18 27 28 -26
10 -45 9 -72 -5z"/>
<path d="M1297 313 c-14 -13 -6 -23 16 -23 23 0 23 -2 16 -52 -4 -29 -10 -66
-14 -81 -7 -25 -5 -28 11 -25 20 3 28 24 41 103 7 45 11 50 36 53 15 2 27 9
27 18 0 11 -15 14 -63 14 -35 0 -67 -3 -70 -7z"/>
</g>
</svg>
